<?xml version="1.0" encoding="UTF-8" standalone="no"?>
<!DOCTYPE svg PUBLIC "-//W3C//DTD SVG 1.1//EN"
 "http://www.w3.org/Graphics/SVG/1.1/DTD/svg11.dtd">
<!-- Generated by graphviz version 2.43.0 (0)
 -->
<!-- Title: task_manager Pages: 1 -->
<svg width="2500pt" height="619pt"
 viewBox="0.00 0.00 2500.00 619.00" xmlns="http://www.w3.org/2000/svg" xmlns:xlink="http://www.w3.org/1999/xlink">
<g id="graph0" class="graph" transform="scale(1 1) rotate(0) translate(36 583)">
<title>task_manager</title>
<polygon fill="white" stroke="transparent" points="-36,36 -36,-583 2464,-583 2464,36 -36,36"/>
<g id="clust1" class="cluster">
<title>cluster_MainFlow</title>
<polygon fill="#f9fafb" stroke="#e5e7eb" points="8,-8 8,-539 2420,-539 2420,-8 8,-8"/>
<text text-anchor="middle" x="1214" y="-522.2" font-family="Times,serif" font-size="16.00">Task Flowchart</text>
</g>
<g id="clust2" class="cluster">
<title>cluster_Execution</title>
<polygon fill="#f9fafb" stroke="#e5e7eb" points="16,-331 16,-505 1553.5,-505 1553.5,-331 16,-331"/>
<text text-anchor="middle" x="784.75" y="-488.2" font-family="Times,serif" font-size="16.00">Task Execution</text>
</g>
<g id="clust3" class="cluster">
<title>cluster_Solution</title>
<polygon fill="#f9fafb" stroke="#e5e7eb" points="952,-195 952,-323 1857,-323 1857,-195 952,-195"/>
<text text-anchor="middle" x="1404.5" y="-306.2" font-family="Times,serif" font-size="16.00">Solution Execution</text>
</g>
<g id="clust4" class="cluster">
<title>cluster_Validation</title>
<polygon fill="#f9fafb" stroke="#e5e7eb" points="1233.5,-16 1233.5,-187 2412,-187 2412,-16 1233.5,-16"/>
<text text-anchor="middle" x="1822.75" y="-170.2" font-family="Times,serif" font-size="16.00">Solution Validation</text>
</g>
<!-- Execute -->
<g id="node1" class="node">
<title>Execute</title>
<path fill="#dbeafe" stroke="#1e3a8a" d="M117,-403C117,-403 36,-403 36,-403 30,-403 24,-397 24,-391 24,-391 24,-379 24,-379 24,-373 30,-367 36,-367 36,-367 117,-367 117,-367 123,-367 129,-373 129,-379 129,-379 129,-391 129,-391 129,-397 123,-403 117,-403"/>
<text text-anchor="middle" x="76.5" y="-381.9" font-family="Helvetica,sans-Serif" font-size="12.00">executeTask()</text>
</g>
<!-- CheckMode -->
<g id="node7" class="node">
<title>CheckMode</title>
<path fill="#fef3c7" stroke="#f59e0b" d="M238.63,-416.17C238.63,-416.17 157.37,-388.83 157.37,-388.83 151.69,-386.91 151.69,-383.09 157.37,-381.17 157.37,-381.17 238.63,-353.83 238.63,-353.83 244.31,-351.91 255.69,-351.91 261.37,-353.83 261.37,-353.83 342.63,-381.17 342.63,-381.17 348.31,-383.09 348.31,-386.91 342.63,-388.83 342.63,-388.83 261.37,-416.17 261.37,-416.17 255.69,-418.09 244.31,-418.09 238.63,-416.17"/>
<text text-anchor="middle" x="250" y="-381.9" font-family="Helvetica,sans-Serif" font-size="12.00">Mode Switch?</text>
</g>
<!-- Execute&#45;&gt;CheckMode -->
<g id="edge1" class="edge">
<title>Execute&#45;&gt;CheckMode</title>
<path fill="none" stroke="black" d="M129.42,-385C131.5,-385 133.61,-385 135.75,-385"/>
<polygon fill="black" stroke="black" points="135.91,-388.5 145.91,-385 135.91,-381.5 135.91,-388.5"/>
</g>
<!-- SetEffector -->
<g id="node2" class="node">
<title>SetEffector</title>
<path fill="#dbeafe" stroke="#1e3a8a" d="M502,-457C502,-457 407,-457 407,-457 401,-457 395,-451 395,-445 395,-445 395,-421 395,-421 395,-415 401,-409 407,-409 407,-409 502,-409 502,-409 508,-409 514,-415 514,-421 514,-421 514,-445 514,-445 514,-451 508,-457 502,-457"/>
<text text-anchor="middle" x="454.5" y="-436.4" font-family="Helvetica,sans-Serif" font-size="12.00">Set End Effector</text>
<text text-anchor="middle" x="454.5" y="-423.4" font-family="Helvetica,sans-Serif" font-size="12.00">Parameter</text>
</g>
<!-- CheckSet -->
<g id="node8" class="node">
<title>CheckSet</title>
<path fill="#fef3c7" stroke="#f59e0b" d="M619.67,-467.04C619.67,-467.04 542.33,-439.96 542.33,-439.96 536.66,-437.98 536.66,-434.02 542.33,-432.04 542.33,-432.04 619.67,-404.96 619.67,-404.96 625.34,-402.98 636.66,-402.98 642.33,-404.96 642.33,-404.96 719.67,-432.04 719.67,-432.04 725.34,-434.02 725.34,-437.98 719.67,-439.96 719.67,-439.96 642.33,-467.04 642.33,-467.04 636.66,-469.02 625.34,-469.02 619.67,-467.04"/>
<text text-anchor="middle" x="631" y="-432.9" font-family="Helvetica,sans-Serif" font-size="12.00">Set Success?</text>
</g>
<!-- SetEffector&#45;&gt;CheckSet -->
<g id="edge6" class="edge">
<title>SetEffector&#45;&gt;CheckSet</title>
<path fill="none" stroke="black" d="M514.09,-434.01C517.77,-434.07 521.53,-434.14 525.34,-434.2"/>
<polygon fill="black" stroke="black" points="525.44,-437.7 535.49,-434.38 525.56,-430.7 525.44,-437.7"/>
</g>
<!-- CreateTask -->
<g id="node3" class="node">
<title>CreateTask</title>
<path fill="#dbeafe" stroke="#1e3a8a" d="M488.5,-392C488.5,-392 420.5,-392 420.5,-392 414.5,-392 408.5,-386 408.5,-380 408.5,-380 408.5,-356 408.5,-356 408.5,-350 414.5,-344 420.5,-344 420.5,-344 488.5,-344 488.5,-344 494.5,-344 500.5,-350 500.5,-356 500.5,-356 500.5,-380 500.5,-380 500.5,-386 494.5,-392 488.5,-392"/>
<text text-anchor="middle" x="454.5" y="-371.4" font-family="Helvetica,sans-Serif" font-size="12.00">Create Task</text>
<text text-anchor="middle" x="454.5" y="-358.4" font-family="Helvetica,sans-Serif" font-size="12.00">with Timer</text>
</g>
<!-- PlanTask -->
<g id="node4" class="node">
<title>PlanTask</title>
<path fill="#dbeafe" stroke="#1e3a8a" d="M662,-387C662,-387 600,-387 600,-387 594,-387 588,-381 588,-375 588,-375 588,-351 588,-351 588,-345 594,-339 600,-339 600,-339 662,-339 662,-339 668,-339 674,-345 674,-351 674,-351 674,-375 674,-375 674,-381 668,-387 662,-387"/>
<text text-anchor="middle" x="631" y="-366.4" font-family="Helvetica,sans-Serif" font-size="12.00">Plan Task</text>
<text text-anchor="middle" x="631" y="-353.4" font-family="Helvetica,sans-Serif" font-size="12.00">with Timer</text>
</g>
<!-- CreateTask&#45;&gt;PlanTask -->
<g id="edge4" class="edge">
<title>CreateTask&#45;&gt;PlanTask</title>
<path fill="none" stroke="black" d="M500.89,-366.7C524.4,-366.03 553.21,-365.2 577.65,-364.5"/>
<polygon fill="black" stroke="black" points="577.93,-367.99 587.83,-364.21 577.73,-361 577.93,-367.99"/>
</g>
<!-- ExecSolution -->
<g id="node5" class="node">
<title>ExecSolution</title>
<path fill="#dbeafe" stroke="#1e3a8a" d="M900.5,-387C900.5,-387 802.5,-387 802.5,-387 796.5,-387 790.5,-381 790.5,-375 790.5,-375 790.5,-351 790.5,-351 790.5,-345 796.5,-339 802.5,-339 802.5,-339 900.5,-339 900.5,-339 906.5,-339 912.5,-345 912.5,-351 912.5,-351 912.5,-375 912.5,-375 912.5,-381 906.5,-387 900.5,-387"/>
<text text-anchor="middle" x="851.5" y="-366.4" font-family="Helvetica,sans-Serif" font-size="12.00">Execute Solution</text>
<text text-anchor="middle" x="851.5" y="-353.4" font-family="Helvetica,sans-Serif" font-size="12.00">with Timer</text>
</g>
<!-- PlanTask&#45;&gt;ExecSolution -->
<g id="edge5" class="edge">
<title>PlanTask&#45;&gt;ExecSolution</title>
<path fill="none" stroke="black" d="M674.13,-363C704.15,-363 745.22,-363 780.17,-363"/>
<polygon fill="black" stroke="black" points="780.32,-366.5 790.32,-363 780.32,-359.5 780.32,-366.5"/>
</g>
<!-- CheckSuccess -->
<g id="node9" class="node">
<title>CheckSuccess</title>
<path fill="#fef3c7" stroke="#f59e0b" d="M1058.08,-404.03C1058.08,-404.03 1002.92,-378.97 1002.92,-378.97 997.46,-376.48 997.46,-371.52 1002.92,-369.03 1002.92,-369.03 1058.08,-343.97 1058.08,-343.97 1063.54,-341.48 1074.46,-341.48 1079.92,-343.97 1079.92,-343.97 1135.08,-369.03 1135.08,-369.03 1140.54,-371.52 1140.54,-376.48 1135.08,-378.97 1135.08,-378.97 1079.92,-404.03 1079.92,-404.03 1074.46,-406.52 1063.54,-406.52 1058.08,-404.03"/>
<text text-anchor="middle" x="1069" y="-370.9" font-family="Helvetica,sans-Serif" font-size="12.00">Success?</text>
</g>
<!-- ExecSolution&#45;&gt;CheckSuccess -->
<g id="edge9" class="edge">
<title>ExecSolution&#45;&gt;CheckSuccess</title>
<path fill="none" stroke="black" d="M912.53,-366.06C936.28,-367.28 963.91,-368.69 989.23,-369.98"/>
<polygon fill="black" stroke="black" points="989.39,-373.49 999.55,-370.51 989.74,-366.5 989.39,-373.49"/>
</g>
<!-- FindSols -->
<g id="node16" class="node">
<title>FindSols</title>
<path fill="#fef3c7" stroke="#f59e0b" d="M1057.57,-285.33C1057.57,-285.33 971.43,-257.67 971.43,-257.67 965.71,-255.83 965.71,-252.17 971.43,-250.33 971.43,-250.33 1057.57,-222.67 1057.57,-222.67 1063.29,-220.83 1074.71,-220.83 1080.43,-222.67 1080.43,-222.67 1166.57,-250.33 1166.57,-250.33 1172.29,-252.17 1172.29,-255.83 1166.57,-257.67 1166.57,-257.67 1080.43,-285.33 1080.43,-285.33 1074.71,-287.17 1063.29,-287.17 1057.57,-285.33"/>
<text text-anchor="middle" x="1069" y="-250.9" font-family="Helvetica,sans-Serif" font-size="12.00">Has Solutions?</text>
</g>
<!-- ExecSolution&#45;&gt;FindSols -->
<g id="edge25" class="edge">
<title>ExecSolution&#45;&gt;FindSols</title>
<path fill="none" stroke="black" d="M900.06,-338.94C934.65,-321.45 981.42,-297.79 1016.82,-279.88"/>
<polygon fill="black" stroke="black" points="1018.68,-282.87 1026.03,-275.23 1015.52,-276.62 1018.68,-282.87"/>
</g>
<!-- Record -->
<g id="node6" class="node">
<title>Record</title>
<path fill="#dbeafe" stroke="#1e3a8a" d="M1331.5,-387C1331.5,-387 1253.5,-387 1253.5,-387 1247.5,-387 1241.5,-381 1241.5,-375 1241.5,-375 1241.5,-351 1241.5,-351 1241.5,-345 1247.5,-339 1253.5,-339 1253.5,-339 1331.5,-339 1331.5,-339 1337.5,-339 1343.5,-345 1343.5,-351 1343.5,-351 1343.5,-375 1343.5,-375 1343.5,-381 1337.5,-387 1331.5,-387"/>
<text text-anchor="middle" x="1292.5" y="-366.4" font-family="Helvetica,sans-Serif" font-size="12.00">Record Timer</text>
<text text-anchor="middle" x="1292.5" y="-353.4" font-family="Helvetica,sans-Serif" font-size="12.00">Results</text>
</g>
<!-- Success -->
<g id="node12" class="node">
<title>Success</title>
<path fill="#d1fae5" stroke="#10b981" d="M1533.5,-426C1533.5,-426 1486.5,-426 1486.5,-426 1480.5,-426 1474.5,-420 1474.5,-414 1474.5,-414 1474.5,-402 1474.5,-402 1474.5,-396 1480.5,-390 1486.5,-390 1486.5,-390 1533.5,-390 1533.5,-390 1539.5,-390 1545.5,-396 1545.5,-402 1545.5,-402 1545.5,-414 1545.5,-414 1545.5,-420 1539.5,-426 1533.5,-426"/>
<text text-anchor="middle" x="1510" y="-404.9" font-family="Helvetica,sans-Serif" font-size="12.00">Success</text>
</g>
<!-- Record&#45;&gt;Success -->
<g id="edge12" class="edge">
<title>Record&#45;&gt;Success</title>
<path fill="none" stroke="black" d="M1343.75,-373.49C1380.32,-381.13 1429.37,-391.37 1464.52,-398.71"/>
<polygon fill="black" stroke="black" points="1463.99,-402.18 1474.49,-400.79 1465.42,-395.32 1463.99,-402.18"/>
</g>
<!-- CheckMode&#45;&gt;SetEffector -->
<g id="edge2" class="edge">
<title>CheckMode&#45;&gt;SetEffector</title>
<path fill="none" stroke="black" d="M311.48,-399.34C334.53,-404.8 360.96,-411.06 384.72,-416.7"/>
<polygon fill="black" stroke="black" points="384.18,-420.17 394.72,-419.07 385.8,-413.36 384.18,-420.17"/>
<text text-anchor="middle" x="374.5" y="-419.8" font-family="Times,serif" font-size="14.00">Yes</text>
</g>
<!-- CheckMode&#45;&gt;CreateTask -->
<g id="edge3" class="edge">
<title>CheckMode&#45;&gt;CreateTask</title>
<path fill="none" stroke="black" d="M333.66,-378.06C355.36,-376.24 378.23,-374.32 398.12,-372.65"/>
<polygon fill="black" stroke="black" points="398.55,-376.13 408.22,-371.8 397.97,-369.15 398.55,-376.13"/>
<text text-anchor="middle" x="374.5" y="-378.8" font-family="Times,serif" font-size="14.00">No</text>
</g>
<!-- Error4 -->
<g id="node11" class="node">
<title>Error4</title>
<path fill="#fee2e2" stroke="#ef4444" d="M923,-471C923,-471 780,-471 780,-471 774,-471 768,-465 768,-459 768,-459 768,-447 768,-447 768,-441 774,-435 780,-435 780,-435 923,-435 923,-435 929,-435 935,-441 935,-447 935,-447 935,-459 935,-459 935,-465 929,-471 923,-471"/>
<text text-anchor="middle" x="851.5" y="-449.9" font-family="Helvetica,sans-Serif" font-size="12.00">Parameter setting failed</text>
</g>
<!-- CheckSet&#45;&gt;Error4 -->
<g id="edge7" class="edge">
<title>CheckSet&#45;&gt;Error4</title>
<path fill="none" stroke="black" d="M713.05,-442.31C727.56,-443.43 742.77,-444.62 757.58,-445.77"/>
<polygon fill="black" stroke="black" points="757.51,-449.28 767.76,-446.56 758.06,-442.3 757.51,-449.28"/>
<text text-anchor="middle" x="749.5" y="-448.8" font-family="Times,serif" font-size="14.00">No</text>
</g>
<!-- CheckSet&#45;&gt;Success -->
<g id="edge8" class="edge">
<title>CheckSet&#45;&gt;Success</title>
<path fill="none" stroke="black" d="M716.97,-431C744.46,-429.38 768,-428 768,-428 768,-428 935,-428 935,-428 935,-428 1219,-444 1219,-444 1219,-444 1366,-444 1366,-444 1366,-444 1422.62,-429.75 1464.6,-419.18"/>
<polygon fill="black" stroke="black" points="1465.54,-422.55 1474.38,-416.71 1463.83,-415.76 1465.54,-422.55"/>
<text text-anchor="middle" x="1069" y="-444.8" font-family="Times,serif" font-size="14.00">Yes</text>
</g>
<!-- CheckSuccess&#45;&gt;Record -->
<g id="edge11" class="edge">
<title>CheckSuccess&#45;&gt;Record</title>
<path fill="none" stroke="black" d="M1138.57,-370.59C1168.1,-369.13 1202.34,-367.43 1230.93,-366.01"/>
<polygon fill="black" stroke="black" points="1231.37,-369.49 1241.18,-365.5 1231.02,-362.5 1231.37,-369.49"/>
<text text-anchor="middle" x="1198.5" y="-371.8" font-family="Times,serif" font-size="14.00">Yes</text>
</g>
<!-- Error3 -->
<g id="node10" class="node">
<title>Error3</title>
<path fill="#fee2e2" stroke="#ef4444" d="M1354,-437C1354,-437 1231,-437 1231,-437 1225,-437 1219,-431 1219,-425 1219,-425 1219,-413 1219,-413 1219,-407 1225,-401 1231,-401 1231,-401 1354,-401 1354,-401 1360,-401 1366,-407 1366,-413 1366,-413 1366,-425 1366,-425 1366,-431 1360,-437 1354,-437"/>
<text text-anchor="middle" x="1292.5" y="-415.9" font-family="Helvetica,sans-Serif" font-size="12.00">Task execution failed</text>
</g>
<!-- CheckSuccess&#45;&gt;Error3 -->
<g id="edge10" class="edge">
<title>CheckSuccess&#45;&gt;Error3</title>
<path fill="none" stroke="black" d="M1122.77,-384.72C1148.41,-389.93 1179.83,-396.31 1208.57,-402.15"/>
<polygon fill="black" stroke="black" points="1208.11,-405.63 1218.61,-404.19 1209.51,-398.77 1208.11,-405.63"/>
<text text-anchor="middle" x="1198.5" y="-404.8" font-family="Times,serif" font-size="14.00">No</text>
</g>
<!-- ExecuteTask -->
<g id="node13" class="node">
<title>ExecuteTask</title>
<path fill="#dbeafe" stroke="#1e3a8a" d="M1837,-289C1837,-289 1690,-289 1690,-289 1684,-289 1678,-283 1678,-277 1678,-277 1678,-265 1678,-265 1678,-259 1684,-253 1690,-253 1690,-253 1837,-253 1837,-253 1843,-253 1849,-259 1849,-265 1849,-265 1849,-277 1849,-277 1849,-283 1843,-289 1837,-289"/>
<text text-anchor="middle" x="1763.5" y="-267.9" font-family="Helvetica,sans-Serif" font-size="12.00">Publish and Execute Task</text>
</g>
<!-- ValidateSols -->
<g id="node14" class="node">
<title>ValidateSols</title>
<path fill="#dbeafe" stroke="#1e3a8a" d="M1346,-289C1346,-289 1239,-289 1239,-289 1233,-289 1227,-283 1227,-277 1227,-277 1227,-265 1227,-265 1227,-259 1233,-253 1239,-253 1239,-253 1346,-253 1346,-253 1352,-253 1358,-259 1358,-265 1358,-265 1358,-277 1358,-277 1358,-283 1352,-289 1346,-289"/>
<text text-anchor="middle" x="1292.5" y="-267.9" font-family="Helvetica,sans-Serif" font-size="12.00">Find Valid Solution</text>
</g>
<!-- CheckValid -->
<g id="node15" class="node">
<title>CheckValid</title>
<path fill="#fef3c7" stroke="#f59e0b" d="M1498.57,-285.33C1498.57,-285.33 1412.43,-257.67 1412.43,-257.67 1406.71,-255.83 1406.71,-252.17 1412.43,-250.33 1412.43,-250.33 1498.57,-222.67 1498.57,-222.67 1504.29,-220.83 1515.71,-220.83 1521.43,-222.67 1521.43,-222.67 1607.57,-250.33 1607.57,-250.33 1613.29,-252.17 1613.29,-255.83 1607.57,-257.67 1607.57,-257.67 1521.43,-285.33 1521.43,-285.33 1515.71,-287.17 1504.29,-287.17 1498.57,-285.33"/>
<text text-anchor="middle" x="1510" y="-250.9" font-family="Helvetica,sans-Serif" font-size="12.00">Valid Solution?</text>
</g>
<!-- ValidateSols&#45;&gt;CheckValid -->
<g id="edge15" class="edge">
<title>ValidateSols&#45;&gt;CheckValid</title>
<path fill="none" stroke="black" d="M1358.16,-265.9C1375.1,-264.56 1393.75,-263.09 1411.99,-261.65"/>
<polygon fill="black" stroke="black" points="1412.37,-265.13 1422.06,-260.86 1411.82,-258.16 1412.37,-265.13"/>
</g>
<!-- ForEachSol -->
<g id="node21" class="node">
<title>ForEachSol</title>
<path fill="#fef3c7" stroke="#f59e0b" d="M1498.43,-149.81C1498.43,-149.81 1394.57,-121.19 1394.57,-121.19 1388.78,-119.59 1388.78,-116.41 1394.57,-114.81 1394.57,-114.81 1498.43,-86.19 1498.43,-86.19 1504.22,-84.59 1515.78,-84.59 1521.57,-86.19 1521.57,-86.19 1625.43,-114.81 1625.43,-114.81 1631.22,-116.41 1631.22,-119.59 1625.43,-121.19 1625.43,-121.19 1521.57,-149.81 1521.57,-149.81 1515.78,-151.41 1504.22,-151.41 1498.43,-149.81"/>
<text text-anchor="middle" x="1510" y="-114.9" font-family="Helvetica,sans-Serif" font-size="12.00">For Each Solution</text>
</g>
<!-- ValidateSols&#45;&gt;ForEachSol -->
<g id="edge26" class="edge">
<title>ValidateSols&#45;&gt;ForEachSol</title>
<path fill="none" stroke="black" d="M1345.8,-252.96C1357.24,-249.02 1366,-246 1366,-246 1366,-246 1383,-192 1383,-192 1383,-192 1424.31,-167.74 1459.62,-147"/>
<polygon fill="black" stroke="black" points="1461.59,-149.9 1468.44,-141.82 1458.04,-143.87 1461.59,-149.9"/>
</g>
<!-- CheckValid&#45;&gt;ExecuteTask -->
<g id="edge17" class="edge">
<title>CheckValid&#45;&gt;ExecuteTask</title>
<path fill="none" stroke="black" d="M1600.38,-260.04C1622.17,-261.51 1645.56,-263.1 1667.6,-264.59"/>
<polygon fill="black" stroke="black" points="1667.41,-268.08 1677.62,-265.26 1667.88,-261.1 1667.41,-268.08"/>
<text text-anchor="middle" x="1657.5" y="-267.8" font-family="Times,serif" font-size="14.00">Yes</text>
</g>
<!-- Error2 -->
<g id="node18" class="node">
<title>Error2</title>
<path fill="#fee2e2" stroke="#ef4444" d="M1815,-239C1815,-239 1712,-239 1712,-239 1706,-239 1700,-233 1700,-227 1700,-227 1700,-215 1700,-215 1700,-209 1706,-203 1712,-203 1712,-203 1815,-203 1815,-203 1821,-203 1827,-209 1827,-215 1827,-215 1827,-227 1827,-227 1827,-233 1821,-239 1815,-239"/>
<text text-anchor="middle" x="1763.5" y="-217.9" font-family="Helvetica,sans-Serif" font-size="12.00">No valid solutions</text>
</g>
<!-- CheckValid&#45;&gt;Error2 -->
<g id="edge16" class="edge">
<title>CheckValid&#45;&gt;Error2</title>
<path fill="none" stroke="black" d="M1587.82,-243.92C1620.15,-239.68 1657.59,-234.77 1689.49,-230.58"/>
<polygon fill="black" stroke="black" points="1690.18,-234.02 1699.64,-229.25 1689.27,-227.08 1690.18,-234.02"/>
<text text-anchor="middle" x="1657.5" y="-238.8" font-family="Times,serif" font-size="14.00">No</text>
</g>
<!-- FindSols&#45;&gt;ValidateSols -->
<g id="edge14" class="edge">
<title>FindSols&#45;&gt;ValidateSols</title>
<path fill="none" stroke="black" d="M1157.22,-260.69C1176.93,-262.21 1197.67,-263.8 1216.8,-265.27"/>
<polygon fill="black" stroke="black" points="1216.71,-268.77 1226.95,-266.05 1217.25,-261.79 1216.71,-268.77"/>
<text text-anchor="middle" x="1198.5" y="-267.8" font-family="Times,serif" font-size="14.00">Yes</text>
</g>
<!-- Error1 -->
<g id="node17" class="node">
<title>Error1</title>
<path fill="#fee2e2" stroke="#ef4444" d="M1347.5,-239C1347.5,-239 1237.5,-239 1237.5,-239 1231.5,-239 1225.5,-233 1225.5,-227 1225.5,-227 1225.5,-215 1225.5,-215 1225.5,-209 1231.5,-203 1237.5,-203 1237.5,-203 1347.5,-203 1347.5,-203 1353.5,-203 1359.5,-209 1359.5,-215 1359.5,-215 1359.5,-227 1359.5,-227 1359.5,-233 1353.5,-239 1347.5,-239"/>
<text text-anchor="middle" x="1292.5" y="-217.9" font-family="Helvetica,sans-Serif" font-size="12.00">No solutions found</text>
</g>
<!-- FindSols&#45;&gt;Error1 -->
<g id="edge13" class="edge">
<title>FindSols&#45;&gt;Error1</title>
<path fill="none" stroke="black" d="M1144.06,-242.97C1166.96,-239.55 1192.22,-235.79 1215.26,-232.36"/>
<polygon fill="black" stroke="black" points="1215.95,-235.79 1225.33,-230.86 1214.92,-228.87 1215.95,-235.79"/>
<text text-anchor="middle" x="1198.5" y="-239.8" font-family="Times,serif" font-size="14.00">No</text>
</g>
<!-- NextSol -->
<g id="node19" class="node">
<title>NextSol</title>
<path fill="#dbeafe" stroke="#1e3a8a" d="M1331.5,-72C1331.5,-72 1253.5,-72 1253.5,-72 1247.5,-72 1241.5,-66 1241.5,-60 1241.5,-60 1241.5,-48 1241.5,-48 1241.5,-42 1247.5,-36 1253.5,-36 1253.5,-36 1331.5,-36 1331.5,-36 1337.5,-36 1343.5,-42 1343.5,-48 1343.5,-48 1343.5,-60 1343.5,-60 1343.5,-66 1337.5,-72 1331.5,-72"/>
<text text-anchor="middle" x="1292.5" y="-50.9" font-family="Helvetica,sans-Serif" font-size="12.00">Next Solution</text>
</g>
<!-- NextSol&#45;&gt;ForEachSol -->
<g id="edge24" class="edge">
<title>NextSol&#45;&gt;ForEachSol</title>
<path fill="none" stroke="black" d="M1343.75,-68.92C1371.92,-77.29 1407.51,-87.86 1438.43,-97.04"/>
<polygon fill="black" stroke="black" points="1437.71,-100.48 1448.29,-99.97 1439.7,-93.77 1437.71,-100.48"/>
</g>
<!-- Validate -->
<g id="node20" class="node">
<title>Validate</title>
<path fill="#dbeafe" stroke="#1e3a8a" d="M2004,-104C2004,-104 1906,-104 1906,-104 1900,-104 1894,-98 1894,-92 1894,-92 1894,-80 1894,-80 1894,-74 1900,-68 1906,-68 1906,-68 2004,-68 2004,-68 2010,-68 2016,-74 2016,-80 2016,-80 2016,-92 2016,-92 2016,-98 2010,-104 2004,-104"/>
<text text-anchor="middle" x="1955" y="-82.9" font-family="Helvetica,sans-Serif" font-size="12.00">Validate Solution</text>
</g>
<!-- CheckState -->
<g id="node23" class="node">
<title>CheckState</title>
<path fill="#fef3c7" stroke="#f59e0b" d="M2113.78,-102.73C2113.78,-102.73 2044.22,-76.27 2044.22,-76.27 2038.61,-74.13 2038.61,-69.87 2044.22,-67.73 2044.22,-67.73 2113.78,-41.27 2113.78,-41.27 2119.39,-39.13 2130.61,-39.13 2136.22,-41.27 2136.22,-41.27 2205.78,-67.73 2205.78,-67.73 2211.39,-69.87 2211.39,-74.13 2205.78,-76.27 2205.78,-76.27 2136.22,-102.73 2136.22,-102.73 2130.61,-104.87 2119.39,-104.87 2113.78,-102.73"/>
<text text-anchor="middle" x="2125" y="-68.9" font-family="Helvetica,sans-Serif" font-size="12.00">Valid State?</text>
</g>
<!-- Validate&#45;&gt;CheckState -->
<g id="edge21" class="edge">
<title>Validate&#45;&gt;CheckState</title>
<path fill="none" stroke="black" d="M2016.18,-80.99C2023.64,-80.36 2031.38,-79.72 2039.12,-79.07"/>
<polygon fill="black" stroke="black" points="2039.62,-82.54 2049.29,-78.23 2039.03,-75.57 2039.62,-82.54"/>
</g>
<!-- CheckFailure -->
<g id="node22" class="node">
<title>CheckFailure</title>
<path fill="#fef3c7" stroke="#f59e0b" d="M1752.48,-132.24C1752.48,-132.24 1693.52,-106.76 1693.52,-106.76 1688.01,-104.38 1688.01,-99.62 1693.52,-97.24 1693.52,-97.24 1752.48,-71.76 1752.48,-71.76 1757.99,-69.38 1769.01,-69.38 1774.52,-71.76 1774.52,-71.76 1833.48,-97.24 1833.48,-97.24 1838.99,-99.62 1838.99,-104.38 1833.48,-106.76 1833.48,-106.76 1774.52,-132.24 1774.52,-132.24 1769.01,-134.62 1757.99,-134.62 1752.48,-132.24"/>
<text text-anchor="middle" x="1763.5" y="-98.9" font-family="Helvetica,sans-Serif" font-size="12.00">Is Failure?</text>
</g>
<!-- ForEachSol&#45;&gt;CheckFailure -->
<g id="edge18" class="edge">
<title>ForEachSol&#45;&gt;CheckFailure</title>
<path fill="none" stroke="black" d="M1613.66,-111.47C1636.52,-110.01 1660.44,-108.49 1682.25,-107.11"/>
<polygon fill="black" stroke="black" points="1682.68,-110.58 1692.44,-106.46 1682.24,-103.6 1682.68,-110.58"/>
</g>
<!-- CheckFailure&#45;&gt;NextSol -->
<g id="edge19" class="edge">
<title>CheckFailure&#45;&gt;NextSol</title>
<path fill="none" stroke="black" d="M1716.84,-87.08C1680.95,-75.36 1637,-61 1637,-61 1637,-61 1452.51,-57.24 1353.95,-55.23"/>
<polygon fill="black" stroke="black" points="1353.88,-51.73 1343.82,-55.03 1353.74,-58.73 1353.88,-51.73"/>
<text text-anchor="middle" x="1510" y="-64.8" font-family="Times,serif" font-size="14.00">Yes</text>
</g>
<!-- CheckFailure&#45;&gt;Validate -->
<g id="edge20" class="edge">
<title>CheckFailure&#45;&gt;Validate</title>
<path fill="none" stroke="black" d="M1831.58,-96.34C1848.42,-94.91 1866.54,-93.38 1883.54,-91.95"/>
<polygon fill="black" stroke="black" points="1884.29,-95.4 1893.96,-91.07 1883.7,-88.42 1884.29,-95.4"/>
<text text-anchor="middle" x="1875.5" y="-96.8" font-family="Times,serif" font-size="14.00">No</text>
</g>
<!-- CheckState&#45;&gt;NextSol -->
<g id="edge22" class="edge">
<title>CheckState&#45;&gt;NextSol</title>
<path fill="none" stroke="black" d="M2051.96,-64.66C2032.15,-62.65 2016,-61 2016,-61 2016,-61 1857,-45 1857,-45 1857,-45 1678,-45 1678,-45 1678,-45 1374,-52 1374,-52 1374,-52 1365.42,-52.21 1353.86,-52.5"/>
<polygon fill="black" stroke="black" points="1353.48,-49.01 1343.57,-52.76 1353.65,-56.01 1353.48,-49.01"/>
<text text-anchor="middle" x="1763.5" y="-48.8" font-family="Times,serif" font-size="14.00">No</text>
</g>
<!-- ReturnSol -->
<g id="node24" class="node">
<title>ReturnSol</title>
<path fill="#d1fae5" stroke="#10b981" d="M2392,-90C2392,-90 2270,-90 2270,-90 2264,-90 2258,-84 2258,-78 2258,-78 2258,-66 2258,-66 2258,-60 2264,-54 2270,-54 2270,-54 2392,-54 2392,-54 2398,-54 2404,-60 2404,-66 2404,-66 2404,-78 2404,-78 2404,-84 2398,-90 2392,-90"/>
<text text-anchor="middle" x="2331" y="-68.9" font-family="Helvetica,sans-Serif" font-size="12.00">Return Valid Solution</text>
</g>
<!-- CheckState&#45;&gt;ReturnSol -->
<g id="edge23" class="edge">
<title>CheckState&#45;&gt;ReturnSol</title>
<path fill="none" stroke="black" d="M2217.26,-72C2227.34,-72 2237.56,-72 2247.52,-72"/>
<polygon fill="black" stroke="black" points="2247.79,-75.5 2257.79,-72 2247.79,-68.5 2247.79,-75.5"/>
<text text-anchor="middle" x="2237.5" y="-75.8" font-family="Times,serif" font-size="14.00">Yes</text>
</g>
</g>
</svg>
